<?xml version="1.0" encoding="UTF-8"?>
<!-- Generator: visioncortex VTracer 0.6.4 -->
<svg version="1.1" xmlns="http://www.w3.org/2000/svg" width="1024" height="1024">
<path d="M0 0 C9.47 -2.98 9.47 -2.98 20 -8 C93.54 -32.51 109.25 -22.52 117 55 C119.97 57.31 122.94 59.62 126 62 C140.69 86.48 129.98 105.04 118 129 C120.11 138.48 123.08 147.74 126 157 C130 177 130 177 133 205 C135.79 216.16 155.51 210.3 167 211 C175.58 212.23 198.75 217.12 191 221 C181.49 220.46 171.98 219.93 162.19 219.38 C126.83 218.53 126.83 218.53 128 259 C133.28 260.32 138.56 261.64 144 263 C151.19 265.11 169.7 271.65 163 275 C155 275 155 275 132 271 C119.51 271 120.23 280.04 115 292 C113.68 294.97 112.36 297.94 111 301 C110.26 309.19 110.26 309.19 130 316 C168.38 337.32 168.38 337.32 155 340 C142.33 335.13 130.14 329.07 118 323 C100.73 315.8 99.73 317.92 88 332 C-14.87 422.01 -211.5 395.45 -315 323 C-331.41 326.28 -345.81 338.27 -360 347 C-371.52 351.61 -371.52 351.61 -370 344 C-356.34 332.83 -341.81 323.59 -327 314 C-324.89 307.66 -324.89 307.66 -336 295 C-338.31 291.04 -340.62 287.08 -343 283 C-346.99 279.01 -362.19 284.35 -365 285 C-392.25 285 -355.17 272.17 -352 271 C-343.27 266.64 -353.63 251.47 -356 242 C-356.99 238.04 -357.98 234.08 -359 230 C-383.7 229.64 -383.7 229.64 -407 232 C-431.42 223.86 -366.84 218.16 -365 218 C-356.24 217.1 -356.24 217.1 -360 194 C-357.23 163.56 -348.99 138.97 -337 111 C-336.69 99.38 -336.69 99.38 -342 78 C-354.09 -42.92 -302.05 -25.42 -217 12 C-207.27 13.72 -207.27 13.72 -186.62 9.69 C-153.08 5.04 -120.9 4 -87 4 C-80.81 -1.89 -80.81 -1.89 -73 -14 C-44.4 -42.6 -24.42 -26.63 0 0 Z M-73 93 C-56.21 95.8 -8.67 91.89 -40 71 C-57.1 45.36 -39.77 22.54 -11 33 C-9.35 34.32 -7.7 35.64 -6 37 C22.83 37 -24.7 -11.8 -34 -18 C-78.45 -32.82 -119.8 69.6 -73 93 Z M17 34 C23.27 35.98 29.54 37.96 36 40 C47 47 47 47 55 54 C62.68 53.45 70.35 52.85 78 52 C86.25 52 94.5 52 103 52 C145.75 -33.51 -12.71 -25.42 17 34 Z M-328 89 C-322.06 88.5 -322.06 88.5 -316 88 C-311.28 102.16 -327.14 115.74 -334 129 C-360.28 188.89 -360.28 188.89 -323 220 C-315.56 222.98 -337.99 227 -346 227 C-368.76 249.76 -331.19 267.31 -315 265 C-316 270 -316 270 -331 276 C-336.62 304.09 -309.41 306.14 -292 300 C-280.5 302.88 -301.54 313.03 -303 314 C-282.1 397.59 31.36 384.8 88 314 C87.2 308.84 87.2 308.84 79 305 C79 295.92 84.79 299.2 92 301 C109.39 301 117.47 271.59 102 263 C103 259 103 259 114 258 C145.47 237.02 110.87 221.79 91 224 C81.25 219.13 110.25 212.79 121 211 C128.83 203.17 117.9 143 106 143 C102.37 146.3 98.74 149.6 95 153 C62.95 173.4 41.17 159.82 22 130 C18.66 126.29 18.66 126.29 5 125 C-8.87 119.45 -16.75 111.57 -26 100 C-33.69 100.77 -41.36 101.82 -49 103 C-104.86 103 -112.08 69.22 -94 21 C-99.04 0.86 -193.99 23 -209 26 C-218 25 -218 25 -242 13 C-308.8 -13.72 -365.27 -4.16 -328 89 Z M-31 66 C-24.16 65.28 -24.16 65.28 -19 53 C-17.35 51.02 -15.7 49.04 -14 47 C-18.47 24.65 -55.25 49.84 -31 66 Z M8 116 C50.83 119.89 64.16 74.02 32 49 C-16.91 32.7 -37.55 95.76 8 116 Z M76 89 C91.93 112.89 66.98 126.99 45 119 C17.01 124.6 47.85 150.46 62 154 C97.49 154 145.5 93.71 112 65 C87.64 56.88 39.6 60.69 76 89 Z M56 114 C72.89 114 75.18 102.88 65 91 C53.1 88.03 48.59 108.44 56 114 Z " fill="#000000" transform="translate(621,356)"/>
<path d="M0 0 C-26.37 9.89 -28.76 -20.92 -19 -38 C6.43 -57.07 10.08 -15.12 0 0 Z " fill="#000000" transform="translate(387,613)"/>
<path d="M0 0 C-24.65 12.33 -30.93 -20.61 -20 -37 C6.85 -54.9 10.39 -16.63 0 0 Z " fill="#000000" transform="translate(637,616)"/>
<path d="M0 0 C-21.45 7.15 -58.48 0.96 -44 -28 C-21.79 -42.8 29.09 -29.09 0 0 Z M-32 -8 C-20.82 -5.2 11.72 -5.28 -7 -24 C-20.5 -30.75 -49.16 -25.16 -32 -8 Z " fill="#000000" transform="translate(525,651)"/>
</svg>
