<?xml version="1.0" encoding="UTF-8"?>
<!-- Generator: visioncortex VTracer 0.6.4 -->
<svg version="1.1" xmlns="http://www.w3.org/2000/svg" width="1024" height="1024">
<path d="M0,0 L3,1 L6,10 L7,13 L16,16 L27,17 L32,20 L41,36 L49,40 L53,40 L47,33 L46,31 L46,24 L50,20 L63,19 L67,23 L70,33 L76,29 L82,22 L83,20 L88,20 L93,15 L97,17 L101,25 L112,32 L122,37 L127,45 L129,43 L132,43 L133,45 L132,54 L128,62 L128,72 L124,86 L125,93 L127,98 L128,108 L129,111 L134,113 L162,128 L175,135 L179,133 L182,131 L187,131 L189,133 L196,135 L203,140 L204,143 L208,146 L209,153 L231,165 L257,179 L261,182 L260,189 L257,192 L251,191 L229,179 L201,164 L190,165 L179,163 L160,163 L145,158 L134,150 L117,142 L111,141 L104,155 L101,160 L100,170 L99,175 L95,178 L94,182 L97,181 L102,183 L105,186 L121,188 L131,191 L134,194 L152,200 L165,207 L173,214 L177,222 L176,232 L168,246 L156,261 L151,267 L140,268 L127,279 L121,283 L122,289 L126,295 L135,301 L141,306 L146,313 L159,314 L170,318 L180,326 L185,333 L197,336 L207,341 L215,349 L221,359 L224,370 L224,383 L220,396 L216,402 L217,409 L217,423 L213,434 L206,443 L197,449 L188,452 L180,453 L174,463 L168,470 L159,476 L147,480 L128,480 L115,476 L111,474 L106,480 L96,487 L84,492 L79,493 L62,493 L49,489 L39,483 L35,479 L30,480 L22,484 L9,487 L-2,487 L-15,484 L-25,479 L-35,471 L-41,463 L-52,468 L-59,470 L-74,470 L-85,466 L-93,460 L-101,451 L-104,447 L-114,449 L-136,449 L-150,446 L-166,440 L-193,426 L-211,416 L-227,410 L-237,408 L-257,408 L-274,412 L-282,414 L-282,410 L-272,401 L-256,393 L-242,389 L-229,388 L-210,390 L-186,397 L-169,402 L-163,403 L-143,403 L-128,399 L-120,395 L-111,378 L-106,372 L-95,365 L-90,363 L-84,362 L-75,362 L-72,363 L-69,353 L-62,343 L-54,336 L-42,330 L-38,329 L-24,328 L-18,316 L-10,306 L-6,291 L-5,281 L-9,279 L-23,266 L-36,264 L-42,257 L-56,228 L-57,225 L-57,216 L-53,208 L-48,202 L-34,192 L-29,189 L-26,183 L-21,180 L0,174 L5,168 L12,166 L14,157 L13,151 L19,142 L22,133 L21,115 L-11,115 L-14,114 L-26,120 L-31,119 L-53,123 L-59,126 L-64,130 L-66,135 L-69,151 L-70,153 L-75,153 L-78,149 L-78,140 L-84,142 L-90,151 L-94,157 L-98,158 L-104,156 L-107,150 L-107,137 L-103,129 L-95,122 L-81,114 L-75,111 L-71,108 L-63,104 L-49,95 L-40,90 L-36,87 L-28,84 L-23,82 L-16,83 L-3,81 L19,80 L27,77 L24,74 L-7,58 L-29,46 L-38,41 L-40,39 L-39,32 L-36,29 L-31,30 L-2,45 L20,57 L49,72 L53,74 L52,61 L52,52 L55,50 L40,48 L32,44 L25,33 L21,30 L8,29 L1,26 L-5,21 L-7,14 L-3,4 Z M0,5 L-4,13 L-3,18 L2,23 L8,26 L21,27 L27,30 L33,40 L39,45 L44,46 L57,46 L57,44 L46,42 L39,38 L30,22 L23,19 L12,18 L6,14 L2,8 Z M92,19 L86,28 L84,29 L83,26 L75,34 L70,37 L66,42 L66,44 L61,43 L58,52 L55,53 L55,58 L59,59 L64,58 L74,53 L89,49 L111,49 L118,51 L118,49 L120,49 L121,52 L127,57 L130,51 L130,49 L125,49 L121,40 L104,31 L97,25 L94,19 Z M58,22 L51,23 L49,25 L50,32 L57,40 L61,41 L59,37 L55,33 L55,28 L60,27 L63,30 L66,36 L68,34 L64,23 L63,22 Z M58,28 L57,33 L61,37 L63,37 L62,31 Z M-35,32 L-37,34 L-36,39 L-9,53 L13,65 L36,77 L47,80 L54,79 L50,76 L17,59 L-5,47 L-28,35 L-33,32 Z M95,50 L79,53 L67,58 L64,61 L67,63 L81,58 L97,56 L113,57 L122,60 L125,60 L123,56 L115,52 L104,50 Z M97,58 L101,61 L110,66 L115,65 L120,62 L118,60 L107,58 Z M86,60 L79,64 L78,66 L78,72 L81,75 L83,68 L87,65 L95,65 L105,70 L109,73 L114,72 L120,69 L125,69 L124,65 L120,64 L113,68 L108,66 L96,60 Z M77,61 L69,65 L69,69 L64,64 L62,62 L56,62 L55,64 L55,71 L59,78 L62,81 L64,81 L59,87 L60,89 L64,88 L63,97 L67,97 L73,106 L82,113 L84,112 L81,105 L83,95 L85,91 L79,85 L77,73 L76,67 L79,61 Z M87,67 L83,71 L83,78 L86,85 L90,89 L92,89 L87,94 L84,98 L83,106 L87,113 L95,118 L104,121 L113,120 L121,113 L118,111 L105,111 L94,107 L91,103 L99,108 L109,110 L122,110 L125,105 L123,96 L121,91 L122,83 L124,72 L121,71 L112,75 L106,73 L94,67 Z M27,80 L19,83 L13,87 L14,86 L15,83 L-4,84 L-15,86 L-24,85 L-31,89 L-35,90 L-33,94 L-29,102 L-28,106 L-28,116 L-26,117 L-16,112 L-18,106 L-11,112 L-8,111 L-12,106 L-11,105 L-7,111 L14,112 L25,113 L21,107 L19,104 L24,109 L33,118 L34,120 L32,120 L33,125 L34,127 L32,126 L28,118 L25,117 L25,125 L27,143 L25,137 L23,140 L19,148 L17,151 L18,157 L24,163 L33,162 L48,157 L64,149 L72,143 L66,134 L59,123 L53,110 L48,95 L45,82 L38,80 Z M48,82 L49,92 L54,108 L62,125 L71,138 L73,141 L78,139 L81,135 L74,127 L65,111 L61,98 L60,91 L55,90 L59,84 L59,82 Z M81,83 L83,87 L87,89 L83,83 Z M87,89 Z M-39,93 L-60,105 L-65,109 L-63,113 L-59,121 L-31,116 L-30,114 L-30,107 L-33,99 L-35,95 Z M64,100 L65,106 L72,120 L80,131 L84,133 L93,122 L92,119 L80,114 L71,107 L66,100 Z M-71,111 L-72,114 L-67,119 L-64,125 L-61,124 L-62,118 L-68,111 Z M125,111 L118,119 L110,123 L105,124 L98,135 L87,147 L74,157 L58,166 L43,172 L42,174 L54,178 L67,178 L79,174 L78,175 L72,178 L72,179 L81,179 L91,177 L97,172 L97,162 L93,165 L105,147 L111,133 L114,127 L113,135 L120,134 L123,134 L116,137 L120,140 L136,148 L145,154 L149,156 L148,152 L148,144 L152,135 L146,136 L143,139 L148,134 L149,130 L141,123 L130,116 Z M-76,115 L-84,120 L-87,124 L-87,126 L-77,125 L-69,123 L-70,118 L-74,115 Z M96,121 L87,133 L79,141 L68,149 L56,156 L37,163 L28,165 L32,169 L36,171 L43,170 L58,164 L74,155 L87,144 L96,135 L103,124 L100,122 Z M-91,123 L-99,129 L-97,131 L-103,140 L-104,145 L-101,142 L-95,133 L-93,132 L-100,143 L-103,153 L-100,153 L-95,141 L-91,136 L-89,136 L-95,145 L-97,150 L-97,155 L-95,155 L-88,142 L-80,137 L-76,138 L-75,149 L-72,150 L-69,133 L-66,126 L-67,124 L-83,128 L-90,129 L-89,123 Z M145,123 Z M147,124 Z M148,125 L153,131 L154,135 L174,146 L177,146 L178,140 L159,130 L150,125 Z M-100,130 Z M-101,131 Z M-102,132 Z M182,134 L179,138 L181,138 L179,150 L180,152 L185,151 L188,142 L189,143 L187,152 L186,155 L190,156 L193,152 L196,143 L195,152 L193,158 L198,157 L201,151 L201,142 L196,140 L193,136 L187,135 Z M153,139 L150,145 L151,154 L156,159 L161,160 L173,160 L173,157 L170,152 L170,146 L156,139 Z M203,147 L201,156 L199,160 L203,159 L205,157 L206,148 Z M172,148 L173,154 L178,158 L183,158 L183,155 L177,152 L175,148 Z M207,157 L204,162 L226,174 L254,189 L257,188 L258,183 L224,165 L209,157 Z M186,159 L188,161 L191,160 Z M17,161 L18,166 L29,174 L36,178 L24,172 L17,166 L15,166 L17,171 L27,178 L43,185 L57,188 L71,188 L87,185 L91,182 L91,180 L82,181 L63,181 L50,179 L38,174 L26,167 L19,161 Z M9,170 L5,172 L4,177 L-6,179 L-23,184 L-25,188 L-18,185 L-10,186 L0,190 L12,199 L23,213 L33,227 L42,234 L50,238 L59,240 L69,240 L77,238 L85,234 L95,225 L105,214 L112,206 L119,199 L127,194 L126,192 L115,190 L101,190 L96,191 L102,188 L101,185 L94,183 L86,187 L78,189 L69,190 L59,190 L42,188 L46,193 L58,199 L62,200 L55,199 L45,194 L36,186 L35,188 L43,199 L50,207 L56,210 L64,210 L73,206 L82,199 L89,192 L85,197 L85,199 L83,199 L83,201 L79,203 L70,209 L63,211 L56,211 L48,207 L39,197 L29,183 L20,176 L15,172 L14,170 Z M41,187 Z M-18,188 L-29,193 L-40,200 L-50,209 L-54,216 L-54,225 L-50,231 L-39,242 L-44,238 L-48,236 L-46,242 L-37,259 L-32,262 L-22,262 L-12,258 L-3,251 L-1,248 L-1,243 L-6,235 L-10,228 L-15,222 L-8,228 L-5,233 L7,231 L20,228 L19,219 L13,207 L4,197 L-7,190 L-13,188 Z M127,197 L121,201 L113,208 L106,218 L100,230 L100,232 L102,233 L114,234 L125,234 L130,228 L139,224 L139,226 L134,227 L130,231 L142,230 L142,232 L132,233 L127,235 L119,246 L123,253 L130,259 L138,263 L141,264 L149,264 L158,254 L170,237 L174,227 L173,220 L168,213 L157,206 L143,200 L133,197 Z M23,232 L2,235 L-2,236 L0,241 L1,243 L1,249 L-1,253 L9,270 L14,276 L19,279 L21,282 L21,289 L20,295 L38,295 L54,299 L66,306 L69,308 L79,300 L92,295 L96,293 L93,285 L95,280 L106,272 L118,255 L119,251 L117,248 L118,243 L121,240 L121,238 L105,236 L87,235 L81,239 L70,242 L60,242 L47,239 L38,234 L35,232 Z M-4,255 L-9,265 L-8,267 L1,263 L-1,257 L-2,255 Z M121,255 L116,262 L116,264 L123,267 L128,268 L135,268 L137,265 L128,260 Z M-9,258 L-16,262 L-20,263 L-18,267 L-14,269 L-9,263 L-8,258 Z M1,264 L-8,268 L-13,270 L-7,277 L-3,276 L3,269 L3,264 Z M114,265 L113,268 L117,274 L122,278 L131,272 L132,270 L119,267 Z M5,269 L-2,277 L-4,279 L-3,280 L3,280 L9,276 L8,272 Z M111,269 L107,275 L112,280 L118,282 L120,278 L113,274 L114,272 Z M104,277 L105,284 L110,292 L117,288 L116,284 L108,280 L106,277 Z M13,278 L8,301 L7,305 L-4,303 L-7,306 L-12,316 L-12,322 L-10,320 L-7,314 L-8,318 L-9,325 L-6,327 L0,314 L-3,324 L-2,328 L2,327 L9,320 L13,310 L17,294 L19,289 L19,283 L14,278 Z M100,279 L96,282 L96,288 L107,304 L112,314 L120,321 L131,325 L132,322 L126,313 L131,318 L135,322 L134,316 L130,311 L129,306 L126,302 L121,303 L116,304 L109,294 L104,286 L102,279 Z M9,279 L-2,283 L-3,293 L8,294 L10,287 L10,279 Z M116,289 L112,292 L113,296 L120,293 L118,289 Z M-3,295 L-4,301 L6,302 L7,297 L3,295 Z M118,295 L115,297 L116,301 L120,301 L124,299 L122,295 Z M97,296 L84,300 L73,307 L71,311 L78,319 L82,328 L79,325 L72,315 L65,308 L53,301 L44,298 L38,297 L24,297 L18,299 L13,317 L6,327 L1,330 L-7,329 L-14,323 L-15,321 L-18,322 L-22,332 L-24,346 L-25,346 L-25,332 L-37,332 L-48,336 L-59,344 L-66,354 L-70,365 L-70,379 L-66,390 L-59,398 L-50,403 L-43,405 L-35,405 L-25,402 L-17,396 L-12,388 L-11,385 L-11,373 L-15,365 L-21,360 L-24,359 L-34,359 L-41,363 L-44,367 L-45,375 L-41,383 L-44,383 L-46,378 L-46,367 L-42,361 L-34,357 L-24,357 L-16,361 L-11,367 L-9,372 L-9,385 L-13,394 L-18,400 L-30,406 L-35,407 L-43,407 L-53,404 L-62,398 L-67,392 L-71,383 L-72,379 L-73,366 L-74,365 L-85,365 L-96,369 L-104,375 L-110,382 L-115,392 L-118,397 L-125,401 L-137,405 L-142,406 L-164,406 L-181,402 L-206,394 L-215,392 L-232,391 L-246,393 L-258,397 L-268,402 L-275,407 L-274,409 L-263,406 L-256,405 L-237,405 L-220,409 L-202,417 L-179,430 L-163,438 L-150,443 L-136,446 L-115,446 L-102,444 L-93,456 L-86,462 L-74,467 L-59,467 L-48,463 L-43,460 L-44,455 L-45,453 L-56,452 L-64,448 L-68,443 L-60,449 L-54,451 L-48,451 L-44,450 L-38,462 L-29,472 L-19,479 L-8,483 L-3,484 L10,484 L24,480 L31,476 L30,472 L26,461 L26,448 L29,439 L38,429 L48,425 L59,425 L68,429 L73,434 L76,440 L76,452 L72,459 L66,462 L57,462 L52,459 L51,457 L56,460 L62,461 L69,458 L74,452 L75,445 L72,436 L64,429 L59,427 L48,427 L38,432 L31,440 L28,448 L28,461 L32,471 L41,481 L49,486 L62,490 L79,490 L91,486 L101,480 L109,472 L114,463 L117,453 L117,450 L119,451 L117,461 L113,471 L121,475 L128,477 L146,477 L158,473 L167,466 L174,458 L179,447 L181,432 L182,430 L182,443 L181,449 L188,449 L198,445 L208,436 L213,426 L214,422 L214,408 L213,406 L209,408 L204,412 L195,416 L198,413 L208,406 L216,397 L220,387 L221,383 L221,371 L217,358 L210,348 L199,340 L190,337 L187,337 L190,348 L190,365 L187,373 L185,374 L188,365 L188,349 L184,337 L177,328 L170,322 L162,318 L158,317 L148,317 L150,327 L150,341 L149,348 L146,348 L148,342 L148,327 L143,314 L135,305 L131,303 L133,307 L138,313 L139,320 L134,326 L126,326 L116,321 L111,317 L102,300 L99,296 Z M130,302 Z M130,309 Z M131,310 Z M132,311 Z M133,312 Z M134,313 Z M135,314 Z M136,316 Z " fill="#000000" transform="translate(479,235)"/>
<path d="M0,0 L10,2 L17,8 L21,15 L25,13 L34,13 L40,17 L43,25 L51,27 L55,24 L64,23 L72,27 L76,35 L76,42 L75,43 L-63,43 L-62,37 L-55,32 L-46,31 L-44,32 L-42,23 L-37,18 L-34,17 L-25,17 L-19,20 L-18,13 L-14,7 L-8,2 Z M0,3 L-9,6 L-14,12 L-16,16 L-17,25 L-21,23 L-25,20 L-34,20 L-39,24 L-41,29 L-41,35 L-50,34 L-58,37 L-59,40 L73,40 L72,33 L68,28 L64,26 L58,26 L52,30 L49,30 L40,28 L38,20 L33,16 L26,16 L18,21 L16,12 L12,7 L7,4 Z " fill="#000000" transform="translate(752,698)"/>
<path d="M0,0 L443,0 L442,3 L1,3 Z " fill="#000000" transform="translate(312,770)"/>
</svg>
